<?xml version="1.0" standalone="no"?>
<!DOCTYPE svg PUBLIC "-//W3C//DTD SVG 20010904//EN"
 "http://www.w3.org/TR/2001/REC-SVG-20010904/DTD/svg10.dtd">
<svg version="1.0" xmlns="http://www.w3.org/2000/svg"
 width="1000.000000pt" height="1000.000000pt" viewBox="0 0 1000.000000 1000.000000"
 preserveAspectRatio="xMidYMid meet">

<g transform="translate(0.000000,1000.000000) scale(0.100000,-0.100000)"
fill="#000000" stroke="none">
<path d="M7385 7820 c-400 -29 -672 -180 -801 -445 -97 -199 -107 -323 -102
-1235 5 -766 7 -798 64 -969 93 -279 323 -457 670 -518 153 -26 534 -24 669 4
205 43 344 110 458 221 112 108 171 216 212 383 43 178 47 275 43 1044 -4 630
-6 731 -21 808 -44 222 -95 325 -222 453 -70 70 -108 100 -170 131 -147 75
-280 108 -493 123 -148 11 -158 11 -307 0z m272 -511 c64 -20 113 -66 149
-142 70 -147 69 -140 69 -937 0 -803 0 -806 -72 -950 -33 -65 -45 -79 -92
-107 -61 -36 -133 -49 -219 -39 -150 18 -237 117 -274 313 -19 98 -19 1458 0
1556 36 191 125 297 267 317 55 8 123 3 172 -11z"/>
<path d="M1400 7558 l0 -213 49 -21 c94 -42 86 59 86 -1095 0 -1010 0 -1018
-21 -1046 -11 -15 -41 -39 -67 -52 l-47 -23 2 -209 3 -209 1075 0 1075 0 1
506 1 505 -316 -3 c-174 -2 -323 -7 -333 -12 -14 -6 -17 -32 -20 -194 -3 -171
-5 -190 -25 -222 -45 -72 -57 -75 -351 -78 l-262 -3 2 418 3 418 320 5 c298 5
322 6 352 25 l33 20 0 233 0 232 -355 0 -355 0 0 123 c0 111 -2 126 -20 142
-43 39 -44 113 -3 174 14 20 19 54 23 156 l5 130 220 3 c138 2 239 -1 273 -8
113 -25 142 -85 142 -297 l0 -133 335 0 335 0 0 470 0 470 -577 0 c-460 0
-594 -3 -658 -15 -104 -19 -303 -19 -380 0 -44 10 -126 14 -302 15 l-243 0 0
-212z"/>
<path d="M3960 7555 l0 -215 39 -19 c21 -11 58 -42 82 -69 43 -48 559 -945
559 -972 0 -18 -516 -957 -556 -1012 -37 -50 -139 -148 -155 -148 -5 0 -9 -91
-9 -215 l0 -215 369 0 c203 0 376 -3 385 -6 14 -5 16 15 16 191 0 113 5 216
11 243 7 26 63 167 125 314 63 147 114 272 114 278 0 5 4 10 9 10 5 0 24 -37
41 -82 18 -46 48 -123 67 -173 130 -336 142 -384 151 -600 l7 -176 400 3 c220
1 430 2 468 1 l67 -1 0 209 0 209 -37 19 c-88 45 -97 57 -391 598 -133 243
-256 462 -273 487 -45 63 -46 105 -4 164 36 51 200 330 366 621 112 198 168
269 248 316 l51 30 0 213 0 212 -395 0 -395 0 0 -148 c0 -114 -5 -166 -19
-223 -19 -75 -212 -548 -225 -552 -8 -2 -160 343 -208 473 -30 82 -32 92 -36
268 l-4 182 -434 0 -434 0 0 -215z"/>
<path d="M6165 4289 c-745 -70 -1363 -353 -1827 -838 -121 -126 -237 -275
-305 -392 -25 -43 -49 -79 -52 -79 -4 0 -128 127 -276 283 -147 155 -271 283
-274 285 -3 1 -4 -142 -1 -317 l5 -319 270 -365 c149 -201 273 -366 276 -366
3 -1 13 25 23 57 75 236 286 623 483 884 593 785 1400 1172 2388 1145 202 -5
178 4 -61 22 -160 13 -515 12 -649 0z"/>
<path d="M7083 4253 c9 -2 23 -2 30 0 6 3 -1 5 -18 5 -16 0 -22 -2 -12 -5z"/>
<path d="M1412 4208 c-17 -17 -17 -1929 0 -1946 8 -8 65 -12 190 -12 165 0
178 1 188 19 14 27 14 1905 0 1932 -10 18 -23 19 -188 19 -125 0 -182 -4 -190
-12z"/>
<path d="M7851 4067 c-6 -8 -12 -81 -13 -193 l-3 -179 -100 -5 -100 -5 -3
-139 c-2 -93 1 -143 9 -152 8 -10 37 -14 105 -14 l93 0 3 -442 c3 -431 4 -444
26 -498 57 -142 177 -193 453 -194 118 -1 160 3 173 13 13 11 16 36 16 155 0
77 -4 146 -8 152 -4 7 -46 13 -98 16 -72 3 -96 8 -121 26 -60 42 -63 66 -63
437 l0 335 148 0 c102 0 152 4 160 12 14 14 17 265 4 285 -5 9 -53 13 -157 15
l-150 3 -3 179 c-1 112 -7 185 -13 193 -9 10 -52 13 -179 13 -127 0 -170 -3
-179 -13z"/>
<path d="M2763 3705 c-82 -18 -156 -59 -203 -112 -21 -24 -40 -43 -43 -43 -3
0 -7 30 -9 68 l-3 67 -190 0 -190 0 0 -715 0 -715 179 -3 c123 -2 183 1 192 9
12 9 14 90 14 458 0 512 1 523 73 595 110 109 291 80 362 -59 l30 -59 5 -470
5 -471 179 -3 c123 -2 183 1 192 9 12 9 14 97 14 503 0 282 -4 519 -10 556
-31 196 -182 351 -378 386 -95 16 -139 16 -219 -1z"/>
<path d="M5295 3714 c-202 -32 -373 -157 -459 -337 -75 -156 -98 -306 -77
-502 22 -198 83 -337 201 -456 60 -61 92 -84 160 -117 121 -57 172 -67 340
-67 108 0 162 5 210 18 177 49 382 197 351 254 -5 10 -59 64 -119 121 l-110
102 -52 -54 c-75 -79 -150 -110 -260 -110 -115 0 -179 22 -241 84 -37 37 -52
62 -68 115 -12 37 -21 71 -21 76 0 5 201 10 458 11 l457 3 3 103 c10 372 -169
657 -463 736 -60 17 -253 29 -310 20z m193 -346 c34 -8 60 -25 98 -62 49 -49
58 -69 79 -168 l5 -28 -260 0 c-209 0 -260 3 -260 13 0 26 32 123 52 154 51
85 166 121 286 91z"/>
<path d="M6660 3695 c-165 -37 -313 -149 -360 -272 -47 -121 -34 -279 28 -364
76 -103 249 -190 525 -265 195 -54 237 -79 237 -142 0 -34 -39 -80 -87 -103
-39 -20 -63 -24 -134 -23 -73 0 -94 4 -143 28 -59 29 -96 72 -96 112 0 41 -19
45 -195 42 -145 -3 -169 -5 -179 -20 -14 -23 5 -133 33 -192 34 -69 115 -142
206 -186 121 -58 212 -75 390 -74 164 1 260 20 363 70 80 39 164 122 198 196
26 57 29 73 29 168 0 89 -4 113 -24 158 -58 129 -223 222 -526 298 -230 57
-275 82 -275 154 0 32 6 48 29 70 59 59 206 76 309 34 47 -18 102 -75 102
-104 0 -50 1 -50 180 -50 198 0 195 -1 181 90 -28 170 -144 294 -335 357 -70
22 -101 26 -236 29 -110 3 -174 -1 -220 -11z"/>
</g>
</svg>
